<svg xmlns="http://www.w3.org/2000/svg" xmlns:xlink="http://www.w3.org/1999/xlink" width="99.795" height="97.784" viewBox="0 0 99.795 97.784">
  <defs>
    <filter id="Path_5" x="0" y="0" width="99.795" height="97.784" filterUnits="userSpaceOnUse">
      <feOffset dy="3" input="SourceAlpha"/>
      <feGaussianBlur stdDeviation="3" result="blur"/>
      <feFlood flood-opacity="0.161"/>
      <feComposite operator="in" in2="blur"/>
      <feComposite in="SourceGraphic"/>
    </filter>
  </defs>
  <g id="Group_784" data-name="Group 784" transform="translate(9 6)">
    <g id="Group_2" data-name="Group 2" transform="translate(0 0)">
      <g transform="matrix(1, 0, 0, 1, -9, -6)" filter="url(#Path_5)">
        <path id="Path_5-2" data-name="Path 5" d="M10.057,0H71.738A10.057,10.057,0,0,1,81.8,10.057v59.67A10.057,10.057,0,0,1,71.738,79.784H10.057A10.057,10.057,0,0,1,0,69.727V10.057A10.057,10.057,0,0,1,10.057,0Z" transform="translate(9 6)" fill="#fff"/>
      </g>
    </g>
    <g id="Group_734" data-name="Group 734" transform="translate(9.988 0)">
      <text id="S" transform="translate(0 50)" font-size="54" font-family="Georgia-Bold, Georgia" font-weight="700"><tspan x="0" y="0">S</tspan></text>
      <text id="W" transform="translate(9.489 69.12)" font-size="38" font-family="Georgia-Bold, Georgia" font-weight="700"><tspan x="0" y="0">W</tspan></text>
      <g id="noun_cart_3550990" transform="translate(32.517 20.624)">
        <path id="Path_2" data-name="Path 2" d="M42.574,25.369H25.8L24.823,22.7v-.04A2.839,2.839,0,0,0,22.154,21H18v2.184h4.154a.408.408,0,0,1,.372.222l3.9,10.634a3.627,3.627,0,0,0,3.458,2.25H37.7a3.629,3.629,0,0,0,3.454-2.239L43.8,26.9a1.069,1.069,0,0,0-.172-1.046,1.342,1.342,0,0,0-1.041-.49ZM38.853,33.36a1.21,1.21,0,0,1-1.153.746H29.883a1.209,1.209,0,0,1-1.153-.75l-2.127-5.8H41Z" transform="translate(-18 -21)" fill="#fd5800"/>
        <circle id="Ellipse_1" data-name="Ellipse 1" cx="1.274" cy="1.274" r="1.274" transform="translate(8.614 18.203)" fill="#fd5800"/>
        <circle id="Ellipse_2" data-name="Ellipse 2" cx="1.267" cy="1.267" r="1.267" transform="translate(20.436 18.203)" fill="#fd5800"/>
      </g>
    </g>
  </g>
</svg>
